<?xml version="1.0" encoding="utf-8"?>
<!-- Generator: Adobe Illustrator 25.0.1, SVG Export Plug-In . SVG Version: 6.00 Build 0)  -->
<svg version="1.1" id="Layer_1" xmlns="http://www.w3.org/2000/svg" xmlns:xlink="http://www.w3.org/1999/xlink" x="0px" y="0px"
	 viewBox="0 0 100 64.2" style="enable-background:new 0 0 100 64.2;" xml:space="preserve">
<style type="text/css">
	.st0{fill:#5BCDFF;}
	.st1{font-family:'ChelaOne-Regular';}
	.st2{font-size:48px;}
</style>
<path d="M25.5,50.3c0-7.3,3.2-13.9,8.4-18.5c-1.9-1.9-4.2-3.3-6.9-4.2c3.4-1.7,5.8-5.3,5.8-9.4c0-5.8-4.7-10.5-10.5-10.5
	s-10.5,4.7-10.5,10.5c0,4.1,2.3,7.7,5.8,9.4c-6.8,2.1-11.7,8.3-11.7,15.7c0,8.3,6.2,8.7,14.2,8.7c0.7,0,1.5,0,2.3,0s1.5,0,2.3,0
	c0.4,0,0.7,0,1.1,0C25.5,51.5,25.5,50.9,25.5,50.3z"/>
<path d="M82.5,27.5c3.4-1.7,5.8-5.3,5.8-9.4c0-5.8-4.7-10.5-10.5-10.5s-10.5,4.7-10.5,10.5c0,4.1,2.3,7.7,5.8,9.4
	c-2.6,0.8-5,2.3-6.9,4.2c5.2,4.5,8.4,11.2,8.4,18.5c0,0.6,0,1.2-0.1,1.8c0.3,0,0.7,0,1,0c0.8,0,1.5,0,2.3,0s1.6,0,2.3,0
	c8,0,14.2-0.4,14.2-8.7C94.2,35.8,89.3,29.6,82.5,27.5z"/>
<path d="M47,61.5c0.9,0,2,0,3,0s2,0,3,0c10.4,0,18.5-0.5,18.5-11.4c0-9.7-6.4-17.9-15.3-20.6c4.5-2.2,7.5-7,7.5-12.3
	c0-7.6-6.1-13.8-13.8-13.8c-7.6,0-13.8,6.1-13.8,13.8c0,5.4,3.1,10.1,7.5,12.3c-8.8,2.7-15.3,10.9-15.3,20.6
	C28.5,61,36.6,61.5,47,61.5z"/>
<text transform="matrix(0.9997 2.501477e-02 -2.501477e-02 0.9997 21.0533 58.6299)" class="st0 st1 st2">3-6</text>
</svg>
